<?xml version="1.0" encoding="utf-8"?>
<!-- Generator: Adobe Illustrator 16.0.4, SVG Export Plug-In . SVG Version: 6.00 Build 0)  -->
<!DOCTYPE svg PUBLIC "-//W3C//DTD SVG 1.1//EN" "http://www.w3.org/Graphics/SVG/1.1/DTD/svg11.dtd">
<svg version="1.1" id="Layer_1" xmlns="http://www.w3.org/2000/svg" xmlns:xlink="http://www.w3.org/1999/xlink" x="0px" y="0px"
width="400px" height="400px" viewBox="0 0 400 400" enable-background="new 0 0 400 400"
xml:space="preserve">

<path d="M 200 200 
							L 200 20
							A 200 200,0,0,1,366.94012760024 132.6873429672 
							L 200 200 Z" 
							stroke="white"
							fill="rgb(179,190,214)"/><path d="M 200 200 
							L 366.94012760024 132.6873429672
							A 200 200,0,0,1,350.75504720759 298.35098241217 
							L 200 200 Z" 
							stroke="white"
							fill="rgb(179,160,204)"/><path d="M 200 200 
							L 350.75504720759 298.35098241217
							A 200 200,0,0,1,185.31368991773 379.39986704613 
							L 200 200 Z" 
							stroke="white"
							fill="rgb(207,184,131)"/><path d="M 200 200 
							L 185.31368991773 379.39986704613
							A 200 200,0,0,1,35.715514267369 273.55683345254 
							L 200 200 Z" 
							stroke="white"
							fill="rgb(187,246,124)"/><path d="M 200 200 
							L 35.715514267369 273.55683345254
							A 200 200,0,0,1,41.7230641657 114.27712333977 
							L 200 200 Z" 
							stroke="white"
							fill="rgb(173,245,198)"/><path d="M 200 200 
							L 41.7230641657 114.27712333977
							A 200 200,0,0,1,200 20 
							L 200 200 Z" 
							stroke="white"
							fill="rgb(128,103,199)"/></svg>